<svg width="205" height="42" viewBox="0 0 205 42" fill="none" xmlns="http://www.w3.org/2000/svg">
<path d="M6.016 15.648V24.448H17.6V26.496H6.016V36H3.648V13.6H19.008V15.648H6.016ZM23.1055 19.168H25.3775V36H23.1055V19.168ZM24.2575 15.488C23.7882 15.488 23.3935 15.328 23.0735 15.008C22.7535 14.688 22.5935 14.304 22.5935 13.856C22.5935 13.4293 22.7535 13.056 23.0735 12.736C23.3935 12.416 23.7882 12.256 24.2575 12.256C24.7268 12.256 25.1215 12.416 25.4415 12.736C25.7615 13.0347 25.9215 13.3973 25.9215 13.824C25.9215 14.2933 25.7615 14.688 25.4415 15.008C25.1215 15.328 24.7268 15.488 24.2575 15.488ZM40.2753 19.04C42.3873 19.04 44.0619 19.6587 45.2993 20.896C46.5579 22.112 47.1873 23.8933 47.1873 26.24V36H44.9153V26.464C44.9153 24.7147 44.4779 23.3813 43.6033 22.464C42.7286 21.5467 41.4806 21.088 39.8593 21.088C38.0459 21.088 36.6059 21.632 35.5393 22.72C34.4939 23.7867 33.9713 25.2693 33.9713 27.168V36H31.6993V19.168H33.8753V22.272C34.4939 21.248 35.3473 20.4587 36.4353 19.904C37.5446 19.328 38.8246 19.04 40.2753 19.04ZM59.2435 19.04C61.4408 19.04 63.1262 19.5947 64.2995 20.704C65.4728 21.792 66.0595 23.4133 66.0595 25.568V36H63.8835V33.376C63.3715 34.2507 62.6142 34.9333 61.6115 35.424C60.6302 35.9147 59.4568 36.16 58.0915 36.16C56.2142 36.16 54.7208 35.712 53.6115 34.816C52.5022 33.92 51.9475 32.736 51.9475 31.264C51.9475 29.8347 52.4595 28.6827 53.4835 27.808C54.5288 26.9333 56.1822 26.496 58.4435 26.496H63.7875V25.472C63.7875 24.0213 63.3822 22.9227 62.5715 22.176C61.7608 21.408 60.5768 21.024 59.0195 21.024C57.9528 21.024 56.9288 21.2053 55.9475 21.568C54.9662 21.9093 54.1235 22.3893 53.4195 23.008L52.3955 21.312C53.2488 20.5867 54.2728 20.032 55.4675 19.648C56.6622 19.2427 57.9208 19.04 59.2435 19.04ZM58.4435 34.368C59.7235 34.368 60.8222 34.08 61.7395 33.504C62.6568 32.9067 63.3395 32.0533 63.7875 30.944V28.192H58.5075C55.6275 28.192 54.1875 29.1947 54.1875 31.2C54.1875 32.1813 54.5608 32.96 55.3075 33.536C56.0542 34.0907 57.0995 34.368 58.4435 34.368ZM80.8065 19.04C82.9185 19.04 84.5932 19.6587 85.8305 20.896C87.0892 22.112 87.7185 23.8933 87.7185 26.24V36H85.4465V26.464C85.4465 24.7147 85.0092 23.3813 84.1345 22.464C83.2598 21.5467 82.0118 21.088 80.3905 21.088C78.5772 21.088 77.1372 21.632 76.0705 22.72C75.0252 23.7867 74.5025 25.2693 74.5025 27.168V36H72.2305V19.168H74.4065V22.272C75.0252 21.248 75.8785 20.4587 76.9665 19.904C78.0758 19.328 79.3558 19.04 80.8065 19.04ZM100.925 36.16C99.2613 36.16 97.7679 35.7973 96.4453 35.072C95.1439 34.3467 94.1199 33.3333 93.3733 32.032C92.6266 30.7093 92.2533 29.2267 92.2533 27.584C92.2533 25.9413 92.6266 24.4693 93.3733 23.168C94.1199 21.8667 95.1439 20.8533 96.4453 20.128C97.7679 19.4027 99.2613 19.04 100.925 19.04C102.376 19.04 103.667 19.328 104.797 19.904C105.949 20.4587 106.856 21.28 107.517 22.368L105.821 23.52C105.267 22.688 104.563 22.0693 103.709 21.664C102.856 21.2373 101.928 21.024 100.925 21.024C99.7093 21.024 98.6106 21.3013 97.6293 21.856C96.6693 22.3893 95.9119 23.1573 95.3573 24.16C94.8239 25.1627 94.5573 26.304 94.5573 27.584C94.5573 28.8853 94.8239 30.0373 95.3573 31.04C95.9119 32.0213 96.6693 32.7893 97.6293 33.344C98.6106 33.8773 99.7093 34.144 100.925 34.144C101.928 34.144 102.856 33.9413 103.709 33.536C104.563 33.1307 105.267 32.512 105.821 31.68L107.517 32.832C106.856 33.92 105.949 34.752 104.797 35.328C103.645 35.8827 102.355 36.16 100.925 36.16ZM126.355 28.288H112.275C112.403 30.0373 113.075 31.456 114.291 32.544C115.507 33.6107 117.043 34.144 118.899 34.144C119.945 34.144 120.905 33.9627 121.779 33.6C122.654 33.216 123.411 32.6613 124.051 31.936L125.331 33.408C124.585 34.304 123.646 34.9867 122.515 35.456C121.406 35.9253 120.179 36.16 118.835 36.16C117.107 36.16 115.571 35.7973 114.227 35.072C112.905 34.3253 111.87 33.3013 111.123 32C110.377 30.6987 110.003 29.2267 110.003 27.584C110.003 25.9413 110.355 24.4693 111.059 23.168C111.785 21.8667 112.766 20.8533 114.003 20.128C115.262 19.4027 116.67 19.04 118.227 19.04C119.785 19.04 121.182 19.4027 122.419 20.128C123.657 20.8533 124.627 21.8667 125.331 23.168C126.035 24.448 126.387 25.92 126.387 27.584L126.355 28.288ZM118.227 20.992C116.606 20.992 115.241 21.5147 114.131 22.56C113.043 23.584 112.425 24.928 112.275 26.592H124.211C124.062 24.928 123.433 23.584 122.323 22.56C121.235 21.5147 119.87 20.992 118.227 20.992Z" fill="#FEF4F4"/>
<line x1="80" y1="14" x2="125" y2="14" stroke="#E0E0E0" stroke-width="2"/>
<line x1="89" y1="8" x2="134" y2="8" stroke="#E0E0E0" stroke-width="2"/>
<line x1="97" y1="1" x2="142" y2="1" stroke="#E0E0E0" stroke-width="2"/>
</svg>
